<svg aria-hidden="true" style="position: absolute; width: 0; height: 0; overflow: hidden;" version="1.1" xmlns="http://www.w3.org/2000/svg" xmlns:xlink="http://www.w3.org/1999/xlink">
<defs>
<symbol id="icon-facebook" viewBox="0 0 32 32">
<path d="M29.333 16c0-7.364-5.969-13.333-13.333-13.333s-13.333 5.97-13.333 13.333c0 6.655 4.876 12.171 11.25 13.171v-9.317h-3.385v-3.854h3.385v-2.938c0-3.342 1.991-5.188 5.036-5.188 1.459 0 2.985 0.26 2.985 0.26v3.281h-1.681c-1.656 0-2.173 1.028-2.173 2.082v2.501h3.698l-0.591 3.854h-3.107v9.317c6.374-1 11.25-6.516 11.25-13.171z"></path>
</symbol>
<symbol id="icon-instagram" viewBox="0 0 32 32">
<path d="M16 18.813c1.55 0 2.819-1.262 2.819-2.819 0-0.613-0.2-1.181-0.531-1.644-0.512-0.706-1.344-1.175-2.281-1.175s-1.769 0.463-2.281 1.175c-0.331 0.463-0.531 1.031-0.531 1.644-0.006 1.556 1.256 2.819 2.806 2.819z"></path>
<path d="M22.15 12.556v-2.713h-0.35l-2.363 0.006 0.012 2.713z"></path>
<path d="M20.375 16c0 2.413-1.962 4.375-4.375 4.375s-4.375-1.962-4.375-4.375c0-0.581 0.119-1.137 0.325-1.644h-2.387v6.55c0 0.844 0.688 1.531 1.531 1.531h9.813c0.844 0 1.531-0.688 1.531-1.531v-6.55h-2.387c0.212 0.506 0.325 1.063 0.325 1.644z"></path>
<path d="M16 0c-8.838 0-16 7.162-16 16s7.162 16 16 16 16-7.163 16-16-7.163-16-16-16zM24 14.356v6.55c0 1.706-1.387 3.094-3.094 3.094h-9.813c-1.706 0-3.094-1.387-3.094-3.094v-9.819c0-1.706 1.387-3.094 3.094-3.094h9.813c1.706 0 3.094 1.387 3.094 3.094v3.269z"></path>
</symbol>
<symbol id="icon-arrow-right2" viewBox="0 0 32 32">
<path d="M19.414 27.414l10-10c0.781-0.781 0.781-2.047 0-2.828l-10-10c-0.781-0.781-2.047-0.781-2.828 0s-0.781 2.047 0 2.828l6.586 6.586h-19.172c-1.105 0-2 0.895-2 2s0.895 2 2 2h19.172l-6.586 6.586c-0.39 0.39-0.586 0.902-0.586 1.414s0.195 1.024 0.586 1.414c0.781 0.781 2.047 0.781 2.828 0z"></path>
</symbol>
<symbol id="icon-arrow-left2" viewBox="0 0 32 32">
<path d="M12.586 27.414l-10-10c-0.781-0.781-0.781-2.047 0-2.828l10-10c0.781-0.781 2.047-0.781 2.828 0s0.781 2.047 0 2.828l-6.586 6.586h19.172c1.105 0 2 0.895 2 2s-0.895 2-2 2h-19.172l6.586 6.586c0.39 0.39 0.586 0.902 0.586 1.414s-0.195 1.024-0.586 1.414c-0.781 0.781-2.047 0.781-2.828 0z"></path>
</symbol>
</defs>
</svg>
